<svg width="20" height="19" viewBox="0 0 20 19" fill="none" xmlns="http://www.w3.org/2000/svg">
<path d="M0 19V17H20V19H0ZM3 14V11.625L11.825 2.85L14.15 5.175L5.375 14H3ZM4 13H4.9L12.725 5.175L11.825 4.275L4 12.1V13ZM15.05 4.2L12.725 1.9L13.85 0.749999C14.0333 0.566665 14.2627 0.474998 14.538 0.474998C14.8127 0.474998 15.0417 0.566665 15.225 0.749999L16.15 1.7C16.3333 1.88333 16.4293 2.10833 16.438 2.375C16.446 2.64167 16.3583 2.86667 16.175 3.05L15.05 4.2Z" fill="#3AA688"/>
<path d="M0 19V17H20V19H0ZM3 14V11.625L11.825 2.85L14.15 5.175L5.375 14H3ZM4 13H4.9L12.725 5.175L11.825 4.275L4 12.1V13ZM15.05 4.2L12.725 1.9L13.85 0.749999C14.0333 0.566665 14.2627 0.474998 14.538 0.474998C14.8127 0.474998 15.0417 0.566665 15.225 0.749999L16.15 1.7C16.3333 1.88333 16.4293 2.10833 16.438 2.375C16.446 2.64167 16.3583 2.86667 16.175 3.05L15.05 4.2Z" fill="black" fill-opacity="0.2"/>
</svg>
