<svg width="16" height="19" viewBox="0 0 16 19" fill="none" xmlns="http://www.w3.org/2000/svg">
<path d="M0.5 15.725V14.725H2.5V7.225C2.5 5.89167 2.925 4.72067 3.775 3.712C4.625 2.704 5.7 2.075 7 1.825V1.125C7 0.825 7.096 0.583333 7.288 0.4C7.47933 0.216667 7.71667 0.125 8 0.125C8.28333 0.125 8.521 0.216667 8.713 0.4C8.90433 0.583333 9 0.825 9 1.125V1.825C10.3 2.075 11.375 2.704 12.225 3.712C13.075 4.72067 13.5 5.89167 13.5 7.225V14.725H15.5V15.725H0.5ZM8 18.625C7.56667 18.625 7.18767 18.471 6.863 18.163C6.53767 17.8543 6.375 17.4667 6.375 17H9.625C9.625 17.4667 9.471 17.8543 9.163 18.163C8.85433 18.471 8.46667 18.625 8 18.625ZM3.5 14.725H12.5V7.225C12.5 5.975 12.0627 4.91233 11.188 4.037C10.3127 3.16233 9.25 2.725 8 2.725C6.75 2.725 5.68733 3.16233 4.812 4.037C3.93733 4.91233 3.5 5.975 3.5 7.225V14.725Z" fill="#3AA688"/>
<path d="M0.5 15.725V14.725H2.5V7.225C2.5 5.89167 2.925 4.72067 3.775 3.712C4.625 2.704 5.7 2.075 7 1.825V1.125C7 0.825 7.096 0.583333 7.288 0.4C7.47933 0.216667 7.71667 0.125 8 0.125C8.28333 0.125 8.521 0.216667 8.713 0.4C8.90433 0.583333 9 0.825 9 1.125V1.825C10.3 2.075 11.375 2.704 12.225 3.712C13.075 4.72067 13.5 5.89167 13.5 7.225V14.725H15.5V15.725H0.5ZM8 18.625C7.56667 18.625 7.18767 18.471 6.863 18.163C6.53767 17.8543 6.375 17.4667 6.375 17H9.625C9.625 17.4667 9.471 17.8543 9.163 18.163C8.85433 18.471 8.46667 18.625 8 18.625ZM3.5 14.725H12.5V7.225C12.5 5.975 12.0627 4.91233 11.188 4.037C10.3127 3.16233 9.25 2.725 8 2.725C6.75 2.725 5.68733 3.16233 4.812 4.037C3.93733 4.91233 3.5 5.975 3.5 7.225V14.725Z" fill="black" fill-opacity="0.2"/>
</svg>
