<svg width="18" height="14" viewBox="0 0 18 14" fill="none" xmlns="http://www.w3.org/2000/svg">
<path d="M0.599976 13.5H1.59998V10C1.59998 9.03333 1.93764 8.20833 2.61298 7.525C3.28764 6.84166 4.11664 6.5 5.09998 6.5H15.5L11.4 10.6L12.1 11.3L17.4 6L12.1 0.699997L11.4 1.4L15.5 5.5H5.09998C3.84998 5.5 2.78764 5.93733 1.91298 6.812C1.03764 7.68733 0.599976 8.75 0.599976 10V13.5Z" fill="#3AA688"/>
<path d="M0.599976 13.5H1.59998V10C1.59998 9.03333 1.93764 8.20833 2.61298 7.525C3.28764 6.84166 4.11664 6.5 5.09998 6.5H15.5L11.4 10.6L12.1 11.3L17.4 6L12.1 0.699997L11.4 1.4L15.5 5.5H5.09998C3.84998 5.5 2.78764 5.93733 1.91298 6.812C1.03764 7.68733 0.599976 8.75 0.599976 10V13.5Z" fill="black" fill-opacity="0.2"/>
</svg>
