<svg width="24" height="24" viewBox="0 0 24 24" fill="none" xmlns="http://www.w3.org/2000/svg">
<mask id="mask0_425_321" style="mask-type:alpha" maskUnits="userSpaceOnUse" x="0" y="0" width="24" height="24">
<rect width="24" height="24" fill="#3AA688"/>
<rect width="24" height="24" fill="black" fill-opacity="0.2"/>
</mask>
<g mask="url(#mask0_425_321)">
<path d="M8.84995 17.825L12 15.925L15.15 17.85L14.325 14.25L17.1 11.85L13.45 11.525L12 8.12499L10.55 11.5L6.89995 11.825L9.67495 14.25L8.84995 17.825ZM7.32495 19.925L8.57495 14.6L4.44995 11.05L9.87495 10.575L12 5.54999L14.125 10.575L19.55 11.05L15.425 14.6L16.675 19.925L12 17.1L7.32495 19.925Z" fill="#3AA688"/>
<path d="M8.84995 17.825L12 15.925L15.15 17.85L14.325 14.25L17.1 11.85L13.45 11.525L12 8.12499L10.55 11.5L6.89995 11.825L9.67495 14.25L8.84995 17.825ZM7.32495 19.925L8.57495 14.6L4.44995 11.05L9.87495 10.575L12 5.54999L14.125 10.575L19.55 11.05L15.425 14.6L16.675 19.925L12 17.1L7.32495 19.925Z" fill="black" fill-opacity="0.2"/>
</g>
</svg>
