<svg width="24" height="24" viewBox="0 0 24 24" fill="none" xmlns="http://www.w3.org/2000/svg">
<mask id="mask0_425_290" style="mask-type:alpha" maskUnits="userSpaceOnUse" x="0" y="0" width="24" height="24">
<rect width="24" height="24" fill="#3AA688"/>
<rect width="24" height="24" fill="black" fill-opacity="0.2"/>
</mask>
<g mask="url(#mask0_425_290)">
<path d="M13 20.275L12.95 18H11.5C9.41667 18 7.646 17.2707 6.188 15.812C4.72933 14.354 4 12.5833 4 10.5C4 8.41667 4.72933 6.646 6.188 5.188C7.646 3.72933 9.41667 3 11.5 3C12.55 3 13.5293 3.19567 14.438 3.587C15.346 3.979 16.1373 4.51233 16.812 5.187C17.4873 5.86233 18.021 6.654 18.413 7.562C18.8043 8.47067 19 9.45 19 10.5C19 11.5167 18.85 12.496 18.55 13.438C18.25 14.3793 17.8373 15.2667 17.312 16.1C16.7873 16.9333 16.1543 17.7043 15.413 18.413C14.671 19.121 13.8667 19.7417 13 20.275ZM14 18.35C15.1833 17.35 16.1457 16.1793 16.887 14.838C17.629 13.496 18 12.05 18 10.5C18 8.68333 17.371 7.14567 16.113 5.887C14.8543 4.629 13.3167 4 11.5 4C9.68333 4 8.146 4.629 6.888 5.887C5.62933 7.14567 5 8.68333 5 10.5C5 12.3167 5.62933 13.8543 6.888 15.113C8.146 16.371 9.68333 17 11.5 17H14V18.35ZM11.525 15.575C11.7417 15.575 11.9207 15.5043 12.062 15.363C12.204 15.221 12.275 15.0417 12.275 14.825C12.275 14.625 12.204 14.454 12.062 14.312C11.9207 14.1707 11.7417 14.1 11.525 14.1C11.325 14.1 11.1543 14.1707 11.013 14.312C10.871 14.454 10.8 14.625 10.8 14.825C10.8 15.0417 10.871 15.221 11.013 15.363C11.1543 15.5043 11.325 15.575 11.525 15.575ZM11.1 12.65H11.975C12.0083 12.2333 12.0917 11.9083 12.225 11.675C12.3583 11.4417 12.6667 11.075 13.15 10.575C13.45 10.2917 13.6833 10 13.85 9.7C14.0167 9.4 14.1 9.05833 14.1 8.675C14.1 7.94167 13.85 7.37067 13.35 6.962C12.85 6.554 12.25 6.35 11.55 6.35C10.9167 6.35 10.3877 6.51667 9.963 6.85C9.53767 7.18333 9.225 7.58333 9.025 8.05L9.85 8.375C9.98333 8.075 10.1793 7.804 10.438 7.562C10.696 7.32067 11.0667 7.2 11.55 7.2C12.1 7.2 12.5127 7.354 12.788 7.662C13.0627 7.97067 13.2 8.30833 13.2 8.675C13.2 9.00833 13.1127 9.29167 12.938 9.525C12.7627 9.75833 12.5417 10.0083 12.275 10.275C11.7917 10.7083 11.475 11.0917 11.325 11.425C11.175 11.7583 11.1 12.1667 11.1 12.65Z" fill="#3AA688"/>
<path d="M13 20.275L12.95 18H11.5C9.41667 18 7.646 17.2707 6.188 15.812C4.72933 14.354 4 12.5833 4 10.5C4 8.41667 4.72933 6.646 6.188 5.188C7.646 3.72933 9.41667 3 11.5 3C12.55 3 13.5293 3.19567 14.438 3.587C15.346 3.979 16.1373 4.51233 16.812 5.187C17.4873 5.86233 18.021 6.654 18.413 7.562C18.8043 8.47067 19 9.45 19 10.5C19 11.5167 18.85 12.496 18.55 13.438C18.25 14.3793 17.8373 15.2667 17.312 16.1C16.7873 16.9333 16.1543 17.7043 15.413 18.413C14.671 19.121 13.8667 19.7417 13 20.275ZM14 18.35C15.1833 17.35 16.1457 16.1793 16.887 14.838C17.629 13.496 18 12.05 18 10.5C18 8.68333 17.371 7.14567 16.113 5.887C14.8543 4.629 13.3167 4 11.5 4C9.68333 4 8.146 4.629 6.888 5.887C5.62933 7.14567 5 8.68333 5 10.5C5 12.3167 5.62933 13.8543 6.888 15.113C8.146 16.371 9.68333 17 11.5 17H14V18.35ZM11.525 15.575C11.7417 15.575 11.9207 15.5043 12.062 15.363C12.204 15.221 12.275 15.0417 12.275 14.825C12.275 14.625 12.204 14.454 12.062 14.312C11.9207 14.1707 11.7417 14.1 11.525 14.1C11.325 14.1 11.1543 14.1707 11.013 14.312C10.871 14.454 10.8 14.625 10.8 14.825C10.8 15.0417 10.871 15.221 11.013 15.363C11.1543 15.5043 11.325 15.575 11.525 15.575ZM11.1 12.65H11.975C12.0083 12.2333 12.0917 11.9083 12.225 11.675C12.3583 11.4417 12.6667 11.075 13.15 10.575C13.45 10.2917 13.6833 10 13.85 9.7C14.0167 9.4 14.1 9.05833 14.1 8.675C14.1 7.94167 13.85 7.37067 13.35 6.962C12.85 6.554 12.25 6.35 11.55 6.35C10.9167 6.35 10.3877 6.51667 9.963 6.85C9.53767 7.18333 9.225 7.58333 9.025 8.05L9.85 8.375C9.98333 8.075 10.1793 7.804 10.438 7.562C10.696 7.32067 11.0667 7.2 11.55 7.2C12.1 7.2 12.5127 7.354 12.788 7.662C13.0627 7.97067 13.2 8.30833 13.2 8.675C13.2 9.00833 13.1127 9.29167 12.938 9.525C12.7627 9.75833 12.5417 10.0083 12.275 10.275C11.7917 10.7083 11.475 11.0917 11.325 11.425C11.175 11.7583 11.1 12.1667 11.1 12.65Z" fill="black" fill-opacity="0.2"/>
</g>
</svg>
