<svg width="16" height="15" viewBox="0 0 16 15" fill="none" xmlns="http://www.w3.org/2000/svg">
<path d="M0.800013 3.95L0.0750122 3.225L1.60001 1.7C1.98335 1.3 2.43335 1 2.95001 0.8C3.46668 0.6 3.98335 0.5 4.50001 0.5C5.01668 0.5 5.52501 0.595667 6.02501 0.787C6.52501 0.979 6.97501 1.28333 7.37501 1.7L9.25001 3.575C9.55001 3.875 9.89168 4.104 10.275 4.262C10.6583 4.42067 11.0583 4.5 11.475 4.5C11.8917 4.5 12.2877 4.42067 12.663 4.262C13.0377 4.104 13.375 3.875 13.675 3.575L15.2 2.05L15.925 2.775L14.4 4.3C14 4.7 13.546 5 13.038 5.2C12.5293 5.4 12.0083 5.5 11.475 5.5C10.9417 5.5 10.421 5.4 9.91301 5.2C9.40435 5 8.95001 4.7 8.55001 4.3L6.67501 2.425C6.37501 2.125 6.03768 1.89567 5.66301 1.737C5.28768 1.579 4.90001 1.5 4.50001 1.5C4.10001 1.5 3.71268 1.579 3.33801 1.737C2.96268 1.89567 2.62501 2.125 2.32501 2.425L0.800013 3.95ZM0.800013 8.45L0.0750122 7.725L1.60001 6.2C1.98335 5.8 2.43335 5.5 2.95001 5.3C3.46668 5.1 3.98335 5 4.50001 5C5.01668 5 5.52501 5.09567 6.02501 5.287C6.52501 5.479 6.97501 5.78333 7.37501 6.2L9.25001 8.075C9.55001 8.375 9.89168 8.604 10.275 8.762C10.6583 8.92067 11.0583 9 11.475 9C11.8917 9 12.2877 8.92067 12.663 8.762C13.0377 8.604 13.375 8.375 13.675 8.075L15.2 6.55L15.925 7.25L14.4 8.8C14 9.2 13.546 9.5 13.038 9.7C12.5293 9.9 12.0083 10 11.475 10C10.9417 10 10.421 9.9 9.91301 9.7C9.40435 9.5 8.95001 9.2 8.55001 8.8L6.67501 6.9C6.37501 6.6 6.03768 6.375 5.66301 6.225C5.28768 6.075 4.90001 6 4.50001 6C4.10001 6 3.71268 6.075 3.33801 6.225C2.96268 6.375 2.62501 6.6 2.32501 6.9L0.800013 8.45ZM0.800013 12.95L0.0750122 12.225L1.60001 10.7C1.98335 10.3 2.43335 9.99567 2.95001 9.787C3.46668 9.579 3.98335 9.475 4.50001 9.475C5.01668 9.475 5.52501 9.575 6.02501 9.775C6.52501 9.975 6.97501 10.2833 7.37501 10.7L9.25001 12.575C9.55001 12.875 9.89168 13.1083 10.275 13.275C10.6583 13.4417 11.0583 13.525 11.475 13.525C11.8917 13.525 12.2877 13.4417 12.663 13.275C13.0377 13.1083 13.375 12.875 13.675 12.575L15.2 11.05L15.925 11.75L14.4 13.3C14 13.7 13.546 14.004 13.038 14.212C12.5293 14.4207 12.0083 14.525 11.475 14.525C10.9417 14.525 10.421 14.4207 9.91301 14.212C9.40435 14.004 8.95001 13.7 8.55001 13.3L6.67501 11.4C6.37501 11.0833 6.03768 10.85 5.66301 10.7C5.28768 10.55 4.90001 10.475 4.50001 10.475C4.10001 10.475 3.71268 10.554 3.33801 10.712C2.96268 10.8707 2.62501 11.1 2.32501 11.4L0.800013 12.95Z" fill="#3AA688"/>
<path d="M0.800013 3.95L0.0750122 3.225L1.60001 1.7C1.98335 1.3 2.43335 1 2.95001 0.8C3.46668 0.6 3.98335 0.5 4.50001 0.5C5.01668 0.5 5.52501 0.595667 6.02501 0.787C6.52501 0.979 6.97501 1.28333 7.37501 1.7L9.25001 3.575C9.55001 3.875 9.89168 4.104 10.275 4.262C10.6583 4.42067 11.0583 4.5 11.475 4.5C11.8917 4.5 12.2877 4.42067 12.663 4.262C13.0377 4.104 13.375 3.875 13.675 3.575L15.2 2.05L15.925 2.775L14.4 4.3C14 4.7 13.546 5 13.038 5.2C12.5293 5.4 12.0083 5.5 11.475 5.5C10.9417 5.5 10.421 5.4 9.91301 5.2C9.40435 5 8.95001 4.7 8.55001 4.3L6.67501 2.425C6.37501 2.125 6.03768 1.89567 5.66301 1.737C5.28768 1.579 4.90001 1.5 4.50001 1.5C4.10001 1.5 3.71268 1.579 3.33801 1.737C2.96268 1.89567 2.62501 2.125 2.32501 2.425L0.800013 3.95ZM0.800013 8.45L0.0750122 7.725L1.60001 6.2C1.98335 5.8 2.43335 5.5 2.95001 5.3C3.46668 5.1 3.98335 5 4.50001 5C5.01668 5 5.52501 5.09567 6.02501 5.287C6.52501 5.479 6.97501 5.78333 7.37501 6.2L9.25001 8.075C9.55001 8.375 9.89168 8.604 10.275 8.762C10.6583 8.92067 11.0583 9 11.475 9C11.8917 9 12.2877 8.92067 12.663 8.762C13.0377 8.604 13.375 8.375 13.675 8.075L15.2 6.55L15.925 7.25L14.4 8.8C14 9.2 13.546 9.5 13.038 9.7C12.5293 9.9 12.0083 10 11.475 10C10.9417 10 10.421 9.9 9.91301 9.7C9.40435 9.5 8.95001 9.2 8.55001 8.8L6.67501 6.9C6.37501 6.6 6.03768 6.375 5.66301 6.225C5.28768 6.075 4.90001 6 4.50001 6C4.10001 6 3.71268 6.075 3.33801 6.225C2.96268 6.375 2.62501 6.6 2.32501 6.9L0.800013 8.45ZM0.800013 12.95L0.0750122 12.225L1.60001 10.7C1.98335 10.3 2.43335 9.99567 2.95001 9.787C3.46668 9.579 3.98335 9.475 4.50001 9.475C5.01668 9.475 5.52501 9.575 6.02501 9.775C6.52501 9.975 6.97501 10.2833 7.37501 10.7L9.25001 12.575C9.55001 12.875 9.89168 13.1083 10.275 13.275C10.6583 13.4417 11.0583 13.525 11.475 13.525C11.8917 13.525 12.2877 13.4417 12.663 13.275C13.0377 13.1083 13.375 12.875 13.675 12.575L15.2 11.05L15.925 11.75L14.4 13.3C14 13.7 13.546 14.004 13.038 14.212C12.5293 14.4207 12.0083 14.525 11.475 14.525C10.9417 14.525 10.421 14.4207 9.91301 14.212C9.40435 14.004 8.95001 13.7 8.55001 13.3L6.67501 11.4C6.37501 11.0833 6.03768 10.85 5.66301 10.7C5.28768 10.55 4.90001 10.475 4.50001 10.475C4.10001 10.475 3.71268 10.554 3.33801 10.712C2.96268 10.8707 2.62501 11.1 2.32501 11.4L0.800013 12.95Z" fill="black" fill-opacity="0.2"/>
</svg>
