<svg width="24" height="28" viewBox="0 0 24 28" fill="none" xmlns="http://www.w3.org/2000/svg">
<path d="M12 17.225C11.7 17.225 11.4315 17.1125 11.1945 16.8875C10.9565 16.6625 10.8375 16.3875 10.8375 16.0625C10.8375 15.7625 10.9565 15.5 11.1945 15.275C11.4315 15.05 11.7 14.9375 12 14.9375C12.3 14.9375 12.569 15.05 12.807 15.275C13.044 15.5 13.1625 15.7625 13.1625 16.0625C13.1625 16.3875 13.044 16.6625 12.807 16.8875C12.569 17.1125 12.3 17.225 12 17.225ZM6 17.225C5.7 17.225 5.4315 17.1125 5.1945 16.8875C4.9565 16.6625 4.8375 16.3875 4.8375 16.0625C4.8375 15.7625 4.9565 15.5 5.1945 15.275C5.4315 15.05 5.7 14.9375 6 14.9375C6.3 14.9375 6.569 15.05 6.807 15.275C7.044 15.5 7.1625 15.7625 7.1625 16.0625C7.1625 16.3875 7.044 16.6625 6.807 16.8875C6.569 17.1125 6.3 17.225 6 17.225ZM18 17.225C17.7 17.225 17.4315 17.1125 17.1945 16.8875C16.9565 16.6625 16.8375 16.3875 16.8375 16.0625C16.8375 15.7625 16.9565 15.5 17.1945 15.275C17.4315 15.05 17.7 14.9375 18 14.9375C18.3 14.9375 18.569 15.05 18.807 15.275C19.044 15.5 19.1625 15.7625 19.1625 16.0625C19.1625 16.3875 19.044 16.6625 18.807 16.8875C18.569 17.1125 18.3 17.225 18 17.225ZM12 23C11.7 23 11.4315 22.8875 11.1945 22.6625C10.9565 22.4375 10.8375 22.1625 10.8375 21.8375C10.8375 21.5375 10.9565 21.269 11.1945 21.032C11.4315 20.794 11.7 20.675 12 20.675C12.3 20.675 12.569 20.794 12.807 21.032C13.044 21.269 13.1625 21.5375 13.1625 21.8375C13.1625 22.1625 13.044 22.4375 12.807 22.6625C12.569 22.8875 12.3 23 12 23ZM6 23C5.7 23 5.4315 22.8875 5.1945 22.6625C4.9565 22.4375 4.8375 22.1625 4.8375 21.8375C4.8375 21.5375 4.9565 21.269 5.1945 21.032C5.4315 20.794 5.7 20.675 6 20.675C6.3 20.675 6.569 20.794 6.807 21.032C7.044 21.269 7.1625 21.5375 7.1625 21.8375C7.1625 22.1625 7.044 22.4375 6.807 22.6625C6.569 22.8875 6.3 23 6 23ZM18 23C17.7 23 17.4315 22.8875 17.1945 22.6625C16.9565 22.4375 16.8375 22.1625 16.8375 21.8375C16.8375 21.5375 16.9565 21.269 17.1945 21.032C17.4315 20.794 17.7 20.675 18 20.675C18.3 20.675 18.569 20.794 18.807 21.032C19.044 21.269 19.1625 21.5375 19.1625 21.8375C19.1625 22.1625 19.044 22.4375 18.807 22.6625C18.569 22.8875 18.3 23 18 23ZM2.4375 27.5C1.7375 27.5 1.1565 27.269 0.6945 26.807C0.2315 26.344 0 25.7625 0 25.0625V5.93748C0 5.23748 0.2315 4.65648 0.6945 4.19448C1.1565 3.73148 1.7375 3.49998 2.4375 3.49998H5.0625V0.162476H6.675V3.49998H17.4375V0.162476H18.9375V3.49998H21.5625C22.2625 3.49998 22.844 3.73148 23.307 4.19448C23.769 4.65648 24 5.23748 24 5.93748V25.0625C24 25.7625 23.769 26.344 23.307 26.807C22.844 27.269 22.2625 27.5 21.5625 27.5H2.4375ZM2.4375 26H21.5625C21.8125 26 22.031 25.906 22.218 25.718C22.406 25.531 22.5 25.3125 22.5 25.0625V11.9375H1.5V25.0625C1.5 25.3125 1.594 25.531 1.782 25.718C1.969 25.906 2.1875 26 2.4375 26ZM1.5 10.4375H22.5V5.93748C22.5 5.68748 22.406 5.46898 22.218 5.28198C22.031 5.09398 21.8125 4.99998 21.5625 4.99998H2.4375C2.1875 4.99998 1.969 5.09398 1.782 5.28198C1.594 5.46898 1.5 5.68748 1.5 5.93748V10.4375Z" fill="#1C1B1F"/>
</svg>
