<svg width="28" height="28" viewBox="0 0 28 28" fill="none" xmlns="http://www.w3.org/2000/svg">
<circle cx="14" cy="14" r="13" fill="white"/>
<circle cx="14" cy="14" r="13" stroke="#3AA688" stroke-width="2"/>
<circle cx="14" cy="14" r="13" stroke="black" stroke-opacity="0.2" stroke-width="2"/>
<mask id="mask0_313_969" style="mask-type:alpha" maskUnits="userSpaceOnUse" x="2" y="2" width="24" height="24">
<rect x="2.66667" y="2.66663" width="22.6667" height="22.6667" fill="#D9D9D9"/>
</mask>
<g mask="url(#mask0_313_969)">
<path d="M7.3889 20.611V18.368L15.7236 10.0805L17.9195 12.2763L9.63196 20.611H7.3889ZM8.33335 19.6666H9.18335L16.5736 12.2763L15.7236 11.4263L8.33335 18.8166V19.6666ZM18.7695 11.3555L16.5736 9.18324L17.6361 8.09712C17.8093 7.92398 18.0259 7.8374 18.2859 7.8374C18.5453 7.8374 18.7616 7.92398 18.9347 8.09712L19.8083 8.99435C19.9815 9.16749 20.0722 9.37999 20.0803 9.63185C20.0879 9.8837 20.0051 10.0962 19.832 10.2693L18.7695 11.3555Z" fill="#3AA688"/>
<path d="M7.3889 20.611V18.368L15.7236 10.0805L17.9195 12.2763L9.63196 20.611H7.3889ZM8.33335 19.6666H9.18335L16.5736 12.2763L15.7236 11.4263L8.33335 18.8166V19.6666ZM18.7695 11.3555L16.5736 9.18324L17.6361 8.09712C17.8093 7.92398 18.0259 7.8374 18.2859 7.8374C18.5453 7.8374 18.7616 7.92398 18.9347 8.09712L19.8083 8.99435C19.9815 9.16749 20.0722 9.37999 20.0803 9.63185C20.0879 9.8837 20.0051 10.0962 19.832 10.2693L18.7695 11.3555Z" fill="black" fill-opacity="0.2"/>
</g>
</svg>
