<svg width="24" height="24" viewBox="0 0 24 24" fill="none" xmlns="http://www.w3.org/2000/svg">
<mask id="mask0_425_282" style="mask-type:alpha" maskUnits="userSpaceOnUse" x="0" y="0" width="24" height="24">
<rect x="0.5" y="0.5" width="23" height="23" fill="#D9D9D9"/>
<rect x="0.5" y="0.5" width="23" height="23" stroke="#3AA688"/>
<rect x="0.5" y="0.5" width="23" height="23" stroke="black" stroke-opacity="0.2"/>
</mask>
<g mask="url(#mask0_425_282)">
<path d="M12.125 8.95C12.125 9.00575 12.1123 9.02 12.0969 9.03444C12.0615 9.06723 12.0363 9.075 12 9.075C11.9637 9.075 11.9385 9.06723 11.9031 9.03444C11.8877 9.02 11.875 9.00575 11.875 8.95C11.875 8.9306 11.8783 8.92273 11.8794 8.92012C11.8807 8.91726 11.8854 8.9072 11.9032 8.89051C11.9385 8.85776 11.9637 8.85 12 8.85C12.0363 8.85 12.0615 8.85776 12.0968 8.89051C12.1145 8.9072 12.1193 8.91726 12.1206 8.92012C12.1217 8.92273 12.125 8.9306 12.125 8.95ZM18.0094 5.99055C18.0095 5.9906 18.0095 5.99065 18.0096 5.9907C18.0095 5.99065 18.0095 5.9906 18.0094 5.99055Z" fill="#1C1B1F"/>
<path d="M12.125 8.95C12.125 9.00575 12.1123 9.02 12.0969 9.03444C12.0615 9.06723 12.0363 9.075 12 9.075C11.9637 9.075 11.9385 9.06723 11.9031 9.03444C11.8877 9.02 11.875 9.00575 11.875 8.95C11.875 8.9306 11.8783 8.92273 11.8794 8.92012C11.8807 8.91726 11.8854 8.9072 11.9032 8.89051C11.9385 8.85776 11.9637 8.85 12 8.85C12.0363 8.85 12.0615 8.85776 12.0968 8.89051C12.1145 8.9072 12.1193 8.91726 12.1206 8.92012C12.1217 8.92273 12.125 8.9306 12.125 8.95ZM18.0094 5.99055C18.0095 5.9906 18.0095 5.99065 18.0096 5.9907C18.0095 5.99065 18.0095 5.9906 18.0094 5.99055Z" stroke="#3AA688"/>
<path d="M12.125 8.95C12.125 9.00575 12.1123 9.02 12.0969 9.03444C12.0615 9.06723 12.0363 9.075 12 9.075C11.9637 9.075 11.9385 9.06723 11.9031 9.03444C11.8877 9.02 11.875 9.00575 11.875 8.95C11.875 8.9306 11.8783 8.92273 11.8794 8.92012C11.8807 8.91726 11.8854 8.9072 11.9032 8.89051C11.9385 8.85776 11.9637 8.85 12 8.85C12.0363 8.85 12.0615 8.85776 12.0968 8.89051C12.1145 8.9072 12.1193 8.91726 12.1206 8.92012C12.1217 8.92273 12.125 8.9306 12.125 8.95ZM18.0094 5.99055C18.0095 5.9906 18.0095 5.99065 18.0096 5.9907C18.0095 5.99065 18.0095 5.9906 18.0094 5.99055Z" stroke="black" stroke-opacity="0.2"/>
</g>
</svg>
