<svg width="66" height="68" viewBox="0 0 66 68" fill="none" xmlns="http://www.w3.org/2000/svg">
<mask id="mask0_352_1310" style="mask-type:alpha" maskUnits="userSpaceOnUse" x="0" y="0" width="66" height="68">
<rect width="65.3831" height="67.866" fill="#D9D9D9"/>
</mask>
<g mask="url(#mask0_352_1310)">
<path d="M17.1629 52.8082C15.4376 51.0173 14.0981 48.9672 13.1446 46.6578C12.1911 44.3485 11.7144 41.9449 11.7144 39.4471C11.7144 36.9492 12.1793 34.4514 13.1092 31.9535C14.0409 29.4557 15.5284 27.1464 17.5716 25.0255C19.3424 23.1875 21.6017 21.7623 24.3496 20.75C27.0957 19.7358 30.0125 19.0166 33.1001 18.5924C36.1876 18.1683 39.2869 17.9439 42.3981 17.9194C45.5074 17.8968 48.3107 17.9562 50.808 18.0976C50.9896 20.6425 51.0695 23.5287 51.0477 26.7561C51.0241 29.9854 50.7853 33.2025 50.3312 36.4072C49.8772 39.612 49.1625 42.6396 48.1872 45.49C47.2101 48.3422 45.8589 50.6638 44.1335 52.4547C42.1357 54.5755 39.9671 56.1195 37.6279 57.0866C35.2904 58.0518 32.9639 58.5344 30.6482 58.5344C28.1963 58.5344 25.7672 58.0395 23.3607 57.0498C20.9543 56.0601 18.8883 54.6462 17.1629 52.8082ZM20.8407 53.4444C22.2937 54.4813 23.8947 55.2589 25.6437 55.7773C27.3909 56.2957 29.059 56.555 30.6482 56.555C32.7822 56.555 34.8818 56.1308 36.9468 55.2825C39.0136 54.4341 40.9551 53.0203 42.7713 51.0408C43.5886 50.1925 44.4059 49.003 45.2232 47.4722C46.0405 45.9396 46.7561 43.9356 47.3699 41.4604C47.982 38.9871 48.4469 35.9953 48.7648 32.4852C49.0826 28.9731 49.1734 24.7899 49.0372 19.9356C46.8124 19.8413 44.2815 19.8291 41.4446 19.8988C38.6059 19.9705 35.7681 20.2297 32.9312 20.6765C30.0925 21.1251 27.4363 21.7972 24.9626 22.6927C22.4871 23.5881 20.5229 24.7899 19.07 26.298C17.0721 28.3717 15.6646 30.551 14.8473 32.8358C14.03 35.1225 13.6214 37.232 13.6214 39.1643C13.6214 41.6621 14.109 44.0422 15.0843 46.3044C16.0614 48.5666 17.3446 50.381 18.9337 51.7478C19.8418 48.543 21.3747 45.4683 23.5323 42.5237C25.6882 39.5771 28.9228 36.7136 33.2363 33.933C30.1488 36.7136 27.5834 39.612 25.5402 42.6283C23.4969 45.6446 21.9305 49.2499 20.8407 53.4444Z" fill="#8FCDBC" fill-opacity="0.7"/>
</g>
</svg>
