<svg width="264" height="286" viewBox="0 0 264 286" fill=`${color}` xmlns="http://www.w3.org/2000/svg">
<g clip-path="url(#clip0_322_2016)">
<path d="M132.33 281.573V200.546H136.627V281.434C183.14 282.27 240.571 249.783 256.039 186.426C265.062 149.467 258.54 114.741 236.537 83.6412C214.509 52.5067 183.669 35.9601 146.027 31.7585C145.975 31.547 145.885 31.3806 145.899 31.2211C146.006 30.0771 146.131 28.9331 146.287 27.4771C149.791 27.952 153.262 28.3056 156.687 28.9019C176.77 32.4033 195.107 40.1028 211.485 52.2779C226.69 63.5828 238.952 77.5155 248.103 94.1765C254.911 106.573 259.758 119.705 262.021 133.635C268.29 172.209 259.741 207.181 235.274 237.785C216.505 261.261 192.204 276.255 162.907 282.949C149.899 285.92 136.714 286.631 123.411 285.473C96.7195 283.154 73.0309 273.385 52.4975 256.269C29.6288 237.209 14.8766 213.026 8.49346 183.843C6.27924 173.717 5.27247 163.469 5.58038 153.079C5.65304 150.66 5.03375 148.177 4.46982 145.789C1.01357 131.211 -0.712826 116.447 0.27665 101.488C1.65707 80.587 8.49692 61.7039 22.142 45.5941C32.9259 32.8609 46.4015 23.7088 61.3613 16.6332C76.5632 9.43979 92.6059 4.9504 109.133 2.18397C115.142 1.17862 121.256 0.807684 127.307 0.0450076C129.137 -0.187262 129.912 0.481813 130.182 2.22903C130.863 6.62482 130.555 10.9825 129.815 15.3263C127.701 27.7197 123.172 39.3159 117.817 50.5862C108.835 69.4936 98.3179 87.5274 85.9114 104.393C76.1757 117.632 64.9767 129.454 51.252 138.668C41.3261 145.335 30.6425 150.167 18.6996 151.807C15.8661 152.195 12.9842 152.244 10.1299 152.448C6.57332 217.501 59.8252 280.398 132.327 281.576L132.33 281.573ZM10.1853 147.644C10.5866 147.789 10.7423 147.89 10.9049 147.9C11.365 147.931 11.8252 147.945 12.2853 147.931C23.2457 147.605 33.3307 144.246 42.7688 138.862C56.9605 130.771 68.5851 119.705 78.5629 106.906C92.9899 88.401 104.715 68.2213 114.682 47.0016C119.647 36.4281 123.678 25.5114 125.577 13.9257C126.075 10.8958 126.075 7.7827 126.307 4.66613C125.12 4.66613 124.366 4.5864 123.633 4.68C119.522 5.19654 115.402 5.65761 111.313 6.30935C92.8377 9.24565 75.0444 14.3902 58.3479 22.9946C44.9795 29.8864 33.1024 38.6884 23.6747 50.5619C13.1398 63.829 7.23758 79.027 5.16176 95.7574C4.11347 104.209 4.13423 112.699 4.81579 121.182C5.01991 123.709 5.38664 126.223 5.73261 128.736C6.0682 131.18 6.47645 133.61 6.85356 136.047C9.34801 122.077 13.683 108.82 20.2565 96.3224C26.8611 83.766 35.3719 72.6587 45.6058 62.8306C46.225 63.4407 46.7302 63.9087 47.2041 64.4114C47.6574 64.8933 48.0725 65.4133 48.5015 65.909C25.5498 88.5535 12.6382 115.635 10.1853 147.644Z" fill=`${color}`/>
<path d="M132.33 281.573V200.546H136.627V281.434C183.14 282.27 240.571 249.783 256.039 186.426C265.062 149.467 258.54 114.741 236.537 83.6412C214.509 52.5067 183.669 35.9601 146.027 31.7585C145.975 31.547 145.885 31.3806 145.899 31.2211C146.006 30.0771 146.131 28.9331 146.287 27.4771C149.791 27.952 153.262 28.3056 156.687 28.9019C176.77 32.4033 195.107 40.1028 211.485 52.2779C226.69 63.5828 238.952 77.5155 248.103 94.1765C254.911 106.573 259.758 119.705 262.021 133.635C268.29 172.209 259.741 207.181 235.274 237.785C216.505 261.261 192.204 276.255 162.907 282.949C149.899 285.92 136.714 286.631 123.411 285.473C96.7195 283.154 73.0309 273.385 52.4975 256.269C29.6288 237.209 14.8766 213.026 8.49346 183.843C6.27924 173.717 5.27247 163.469 5.58038 153.079C5.65304 150.66 5.03375 148.177 4.46982 145.789C1.01357 131.211 -0.712826 116.447 0.27665 101.488C1.65707 80.587 8.49692 61.7039 22.142 45.5941C32.9259 32.8609 46.4015 23.7088 61.3613 16.6332C76.5632 9.43979 92.6059 4.9504 109.133 2.18397C115.142 1.17862 121.256 0.807684 127.307 0.0450076C129.137 -0.187262 129.912 0.481813 130.182 2.22903C130.863 6.62482 130.555 10.9825 129.815 15.3263C127.701 27.7197 123.172 39.3159 117.817 50.5862C108.835 69.4936 98.3179 87.5274 85.9114 104.393C76.1757 117.632 64.9767 129.454 51.252 138.668C41.3261 145.335 30.6425 150.167 18.6996 151.807C15.8661 152.195 12.9842 152.244 10.1299 152.448C6.57332 217.501 59.8252 280.398 132.327 281.576L132.33 281.573ZM10.1853 147.644C10.5866 147.789 10.7423 147.89 10.9049 147.9C11.365 147.931 11.8252 147.945 12.2853 147.931C23.2457 147.605 33.3307 144.246 42.7688 138.862C56.9605 130.771 68.5851 119.705 78.5629 106.906C92.9899 88.401 104.715 68.2213 114.682 47.0016C119.647 36.4281 123.678 25.5114 125.577 13.9257C126.075 10.8958 126.075 7.7827 126.307 4.66613C125.12 4.66613 124.366 4.5864 123.633 4.68C119.522 5.19654 115.402 5.65761 111.313 6.30935C92.8377 9.24565 75.0444 14.3902 58.3479 22.9946C44.9795 29.8864 33.1024 38.6884 23.6747 50.5619C13.1398 63.829 7.23758 79.027 5.16176 95.7574C4.11347 104.209 4.13423 112.699 4.81579 121.182C5.01991 123.709 5.38664 126.223 5.73261 128.736C6.0682 131.18 6.47645 133.61 6.85356 136.047C9.34801 122.077 13.683 108.82 20.2565 96.3224C26.8611 83.766 35.3719 72.6587 45.6058 62.8306C46.225 63.4407 46.7302 63.9087 47.2041 64.4114C47.6574 64.8933 48.0725 65.4133 48.5015 65.909C25.5498 88.5535 12.6382 115.635 10.1853 147.644Z" fill=`${color}` fill-opacity="0.2"/>
<path d="M124.916 250.653C123.571 251.212 122.405 251.69 121 252.272C120.266 250.411 119.571 248.605 118.845 246.812C115.748 239.175 112.797 231.476 109.49 223.932C106.794 217.786 102.034 212.998 97.9894 207.753C95.5919 204.647 93.1735 201.551 90.641 198.559C87.0083 194.264 81.9225 193.793 77.2173 197.37C83.905 205.801 90.5891 214.225 97.3771 222.788C96.27 223.665 95.2078 224.508 93.9727 225.485C92.2532 223.322 90.5753 221.221 88.9042 219.113C84.1783 213.144 79.435 207.181 74.7471 201.184C74.0898 200.341 73.55 199.35 73.1868 198.341C68.2186 184.564 63.292 170.774 58.3481 156.99C57.2825 154.019 55.0302 152.688 52.3766 153.423C49.9998 154.081 48.5433 156.512 49.1072 159.344C51.4529 171.151 53.4734 183.042 56.3622 194.718C60.4862 211.369 68.6338 226.002 80.338 238.589C84.4135 242.975 87.3785 248.119 90.4403 253.389C89.2433 254.11 88.1189 254.786 86.9495 255.493C86.7488 255.313 86.5343 255.198 86.4375 255.018C82.5937 247.911 77.3626 241.852 72.2215 235.681C62.1226 223.565 55.3831 209.639 51.7954 194.313C49.1591 183.046 47.0798 171.64 44.8933 160.273C44.1287 156.3 45.2185 152.778 48.7647 150.431C52.1621 148.181 55.7775 148.233 58.9086 150.677C60.5242 151.935 61.8493 153.977 62.5551 155.94C66.814 167.754 70.8549 179.648 74.972 191.518C75.1208 191.952 75.2799 192.378 75.446 192.843C77.1447 192.229 78.75 191.428 80.4487 191.071C85.6625 189.986 90.2881 191.362 93.6683 195.484C99.3353 202.397 104.982 209.351 110.185 216.614C115.648 224.23 118.364 233.23 121.647 241.914C122.726 244.767 123.775 247.627 124.906 250.66L124.916 250.653Z" fill=`${color}`/>
<path d="M124.916 250.653C123.571 251.212 122.405 251.69 121 252.272C120.266 250.411 119.571 248.605 118.845 246.812C115.748 239.175 112.797 231.476 109.49 223.932C106.794 217.786 102.034 212.998 97.9894 207.753C95.5919 204.647 93.1735 201.551 90.641 198.559C87.0083 194.264 81.9225 193.793 77.2173 197.37C83.905 205.801 90.5891 214.225 97.3771 222.788C96.27 223.665 95.2078 224.508 93.9727 225.485C92.2532 223.322 90.5753 221.221 88.9042 219.113C84.1783 213.144 79.435 207.181 74.7471 201.184C74.0898 200.341 73.55 199.35 73.1868 198.341C68.2186 184.564 63.292 170.774 58.3481 156.99C57.2825 154.019 55.0302 152.688 52.3766 153.423C49.9998 154.081 48.5433 156.512 49.1072 159.344C51.4529 171.151 53.4734 183.042 56.3622 194.718C60.4862 211.369 68.6338 226.002 80.338 238.589C84.4135 242.975 87.3785 248.119 90.4403 253.389C89.2433 254.11 88.1189 254.786 86.9495 255.493C86.7488 255.313 86.5343 255.198 86.4375 255.018C82.5937 247.911 77.3626 241.852 72.2215 235.681C62.1226 223.565 55.3831 209.639 51.7954 194.313C49.1591 183.046 47.0798 171.64 44.8933 160.273C44.1287 156.3 45.2185 152.778 48.7647 150.431C52.1621 148.181 55.7775 148.233 58.9086 150.677C60.5242 151.935 61.8493 153.977 62.5551 155.94C66.814 167.754 70.8549 179.648 74.972 191.518C75.1208 191.952 75.2799 192.378 75.446 192.843C77.1447 192.229 78.75 191.428 80.4487 191.071C85.6625 189.986 90.2881 191.362 93.6683 195.484C99.3353 202.397 104.982 209.351 110.185 216.614C115.648 224.23 118.364 233.23 121.647 241.914C122.726 244.767 123.775 247.627 124.906 250.66L124.916 250.653Z" fill=`${color}` fill-opacity="0.2"/>
<path d="M182.773 255.541C181.517 254.803 180.427 254.162 179.227 253.455C179.486 252.941 179.701 252.498 179.929 252.064C183.572 245.166 188.71 239.401 193.647 233.445C204.448 220.413 211.305 205.423 214.682 188.842C216.65 179.184 218.498 169.505 220.418 159.836C221.207 155.863 218.972 152.948 215.329 153.312C213.191 153.527 211.987 154.844 211.288 156.817C207.503 167.463 203.683 178.099 199.878 188.735C199.722 189.168 199.539 189.594 199.425 190.042C197.56 197.297 193.657 203.35 188.803 208.97C184.51 213.941 180.593 219.242 176.507 224.393C176.262 224.705 175.995 224.996 175.622 225.433C174.511 224.549 173.449 223.703 172.304 222.791C178.998 214.319 185.645 205.912 192.277 197.523C189.142 193.931 182.859 194.077 179.514 197.987C175.691 202.456 172.294 207.295 168.412 211.708C160.8 220.358 156.621 230.751 152.784 241.363C151.476 244.982 150.058 248.56 148.643 252.286C147.231 251.704 146.027 251.208 144.664 250.646C145.429 248.664 146.142 246.798 146.861 244.937C149.293 238.645 151.649 232.325 154.182 226.074C157.168 218.697 162.17 212.62 167.087 206.498C169.796 203.125 172.442 199.7 175.124 196.306C179.656 190.568 186.599 189.095 193.045 192.496C193.342 192.652 193.654 192.784 194.117 192.999C195.698 188.461 197.242 184.02 198.788 179.579C201.573 171.578 204.431 163.604 207.126 155.572C209.42 148.739 217.097 146.871 221.978 151.277C224.618 153.658 225.386 156.796 224.732 160.127C222.359 172.223 220.211 184.38 217.28 196.341C213.637 211.216 206.811 224.688 196.857 236.378C191.831 242.278 186.911 248.199 183.171 255.021C183.088 255.171 182.963 255.299 182.78 255.541H182.773Z" fill=`${color}`/>
<path d="M182.773 255.541C181.517 254.803 180.427 254.162 179.227 253.455C179.486 252.941 179.701 252.498 179.929 252.064C183.572 245.166 188.71 239.401 193.647 233.445C204.448 220.413 211.305 205.423 214.682 188.842C216.65 179.184 218.498 169.505 220.418 159.836C221.207 155.863 218.972 152.948 215.329 153.312C213.191 153.527 211.987 154.844 211.288 156.817C207.503 167.463 203.683 178.099 199.878 188.735C199.722 189.168 199.539 189.594 199.425 190.042C197.56 197.297 193.657 203.35 188.803 208.97C184.51 213.941 180.593 219.242 176.507 224.393C176.262 224.705 175.995 224.996 175.622 225.433C174.511 224.549 173.449 223.703 172.304 222.791C178.998 214.319 185.645 205.912 192.277 197.523C189.142 193.931 182.859 194.077 179.514 197.987C175.691 202.456 172.294 207.295 168.412 211.708C160.8 220.358 156.621 230.751 152.784 241.363C151.476 244.982 150.058 248.56 148.643 252.286C147.231 251.704 146.027 251.208 144.664 250.646C145.429 248.664 146.142 246.798 146.861 244.937C149.293 238.645 151.649 232.325 154.182 226.074C157.168 218.697 162.17 212.62 167.087 206.498C169.796 203.125 172.442 199.7 175.124 196.306C179.656 190.568 186.599 189.095 193.045 192.496C193.342 192.652 193.654 192.784 194.117 192.999C195.698 188.461 197.242 184.02 198.788 179.579C201.573 171.578 204.431 163.604 207.126 155.572C209.42 148.739 217.097 146.871 221.978 151.277C224.618 153.658 225.386 156.796 224.732 160.127C222.359 172.223 220.211 184.38 217.28 196.341C213.637 211.216 206.811 224.688 196.857 236.378C191.831 242.278 186.911 248.199 183.171 255.021C183.088 255.171 182.963 255.299 182.78 255.541H182.773Z" fill=`${color}` fill-opacity="0.2"/>
<path d="M91.824 162.897C93.7545 162.599 95.5467 162.27 97.3457 162.051C104.895 161.129 112.25 161.438 119.131 165.255C127.539 169.917 131.199 179.985 130.649 188.083C130.618 188.551 129.798 189.182 129.227 189.362C116.81 193.311 105.545 189.317 98.1311 178.307C95.0485 173.727 92.9346 168.714 91.8206 162.901L91.824 162.897ZM126.428 185.576C125.892 180.134 124.273 175.259 120.263 171.436C116.772 168.108 112.468 166.544 107.784 166.197C104.32 165.941 100.823 166.146 97.1935 166.146C101.56 179.766 111.631 189.508 126.428 185.576Z" fill=`${color}`/>
<path d="M91.824 162.897C93.7545 162.599 95.5467 162.27 97.3457 162.051C104.895 161.129 112.25 161.438 119.131 165.255C127.539 169.917 131.199 179.985 130.649 188.083C130.618 188.551 129.798 189.182 129.227 189.362C116.81 193.311 105.545 189.317 98.1311 178.307C95.0485 173.727 92.9346 168.714 91.8206 162.901L91.824 162.897ZM126.428 185.576C125.892 180.134 124.273 175.259 120.263 171.436C116.772 168.108 112.468 166.544 107.784 166.197C104.32 165.941 100.823 166.146 97.1935 166.146C101.56 179.766 111.631 189.508 126.428 185.576Z" fill=`${color}` fill-opacity="0.2"/>
<path d="M177.407 163.119C174.065 175.062 169 185.469 156.237 189.723C150.567 191.612 144.865 190.915 139.271 189.185C138.852 189.057 138.368 188.28 138.357 187.795C138.119 177.184 143.485 166.215 155.659 162.866C162.475 160.99 169.221 161.583 176.016 162.668C176.404 162.731 176.77 162.908 177.407 163.119ZM171.958 166.551C171.138 166.399 170.533 166.197 169.924 166.187C167.107 166.139 164.267 165.924 161.475 166.177C154.486 166.804 148.736 169.668 145.304 176.133C143.734 179.094 142.761 182.245 142.82 185.621C146.847 186.668 150.314 186.804 153.739 185.94C163.859 183.392 168.391 175.589 171.958 166.551Z" fill=`${color}`/>
<path d="M177.407 163.119C174.065 175.062 169 185.469 156.237 189.723C150.567 191.612 144.865 190.915 139.271 189.185C138.852 189.057 138.368 188.28 138.357 187.795C138.119 177.184 143.485 166.215 155.659 162.866C162.475 160.99 169.221 161.583 176.016 162.668C176.404 162.731 176.77 162.908 177.407 163.119ZM171.958 166.551C171.138 166.399 170.533 166.197 169.924 166.187C167.107 166.139 164.267 165.924 161.475 166.177C154.486 166.804 148.736 169.668 145.304 176.133C143.734 179.094 142.761 182.245 142.82 185.621C146.847 186.668 150.314 186.804 153.739 185.94C163.859 183.392 168.391 175.589 171.958 166.551Z" fill=`${color}` fill-opacity="0.2"/>
<path d="M134.949 163.927C124.705 158.488 117.592 146.354 123.394 132.699C125.885 126.84 129.729 121.935 134.209 117.279C137.046 119.74 139.187 122.638 141.045 125.738C144.041 130.733 146.138 136.03 146.297 141.979C146.512 150.036 143.066 156.418 137.451 161.843C136.79 162.485 136.088 163.081 135.392 163.684C135.268 163.795 135.091 163.847 134.946 163.927H134.949ZM134.119 123.397C132.233 126.216 130.341 128.698 128.819 131.392C123.339 141.078 124.947 150.372 133.233 157.649C133.797 158.144 134.337 158.98 135.233 158.03C139.367 153.651 142.159 148.666 141.986 142.444C141.786 135.268 138.589 129.287 134.119 123.397Z" fill=`${color}`/>
<path d="M134.949 163.927C124.705 158.488 117.592 146.354 123.394 132.699C125.885 126.84 129.729 121.935 134.209 117.279C137.046 119.74 139.187 122.638 141.045 125.738C144.041 130.733 146.138 136.03 146.297 141.979C146.512 150.036 143.066 156.418 137.451 161.843C136.79 162.485 136.088 163.081 135.392 163.684C135.268 163.795 135.091 163.847 134.946 163.927H134.949ZM134.119 123.397C132.233 126.216 130.341 128.698 128.819 131.392C123.339 141.078 124.947 150.372 133.233 157.649C133.797 158.144 134.337 158.98 135.233 158.03C139.367 153.651 142.159 148.666 141.986 142.444C141.786 135.268 138.589 129.287 134.119 123.397Z" fill=`${color}` fill-opacity="0.2"/>
</g>
<defs>
<clipPath id="clip0_322_2016">
<rect width="264" height="286" fill=`${color}`/>
</clipPath>
</defs>
</svg>
