<svg width="20" height="17" viewBox="0 0 20 17" fill="none" xmlns="http://www.w3.org/2000/svg">
<path d="M14.1712 10.6918H13.2936L12.9826 10.4294C14.0712 9.32133 14.7266 7.88279 14.7266 6.3179C14.7266 2.82847 11.4941 0 7.50616 0C3.51825 0 0.285706 2.82847 0.285706 6.3179C0.285706 9.80732 3.51825 12.6358 7.50616 12.6358C9.29461 12.6358 10.9387 12.0623 12.205 11.1098L12.5049 11.3819V12.1498L18.0591 17L19.7143 15.5517L14.1712 10.6918ZM7.50616 10.6918C4.74017 10.6918 2.50738 8.73814 2.50738 6.3179C2.50738 3.89766 4.74017 1.94397 7.50616 1.94397C10.2721 1.94397 12.5049 3.89766 12.5049 6.3179C12.5049 8.73814 10.2721 10.6918 7.50616 10.6918Z" fill="black"/>
</svg>
