<svg width="24" height="24" viewBox="0 0 24 24" fill="none" xmlns="http://www.w3.org/2000/svg">
<rect width="24" height="24" rx="12" fill="#CFE7E0"/>
<path d="M16.3576 5C16.1689 5 15.9803 5.07219 15.8366 5.21587L14.3629 6.68956L13.321 7.7315L5 16.0526V19H7.94732L18.7839 8.16324C19.072 7.87513 19.072 7.40867 18.7839 7.1213L16.8785 5.21587C16.7348 5.07219 16.5462 5 16.3576 5ZM16.3576 6.77878L17.221 7.64227L16.2683 8.59498L15.4049 7.7315L16.3576 6.77878ZM14.3629 8.77344L15.2264 9.63692L7.33714 17.5263H6.47366V16.6628L14.3629 8.77344Z" fill="#3AA688"/>
<path d="M16.3576 5C16.1689 5 15.9803 5.07219 15.8366 5.21587L14.3629 6.68956L13.321 7.7315L5 16.0526V19H7.94732L18.7839 8.16324C19.072 7.87513 19.072 7.40867 18.7839 7.1213L16.8785 5.21587C16.7348 5.07219 16.5462 5 16.3576 5ZM16.3576 6.77878L17.221 7.64227L16.2683 8.59498L15.4049 7.7315L16.3576 6.77878ZM14.3629 8.77344L15.2264 9.63692L7.33714 17.5263H6.47366V16.6628L14.3629 8.77344Z" fill="black" fill-opacity="0.2"/>
</svg>
