<svg width="25" height="24" viewBox="0 0 25 24" fill="none" xmlns="http://www.w3.org/2000/svg">
<mask id="mask0_425_261" style="mask-type:alpha" maskUnits="userSpaceOnUse" x="0" y="0" width="25" height="24">
<rect x="0.5" width="24" height="24" fill="#D9D9D9"/>
</mask>
<g mask="url(#mask0_425_261)">
<path d="M12.85 20.95C11.8 20.8333 10.7627 20.5667 9.738 20.15C8.71267 19.7333 7.78333 19.1207 6.95 18.312C6.11667 17.504 5.425 16.4873 4.875 15.262C4.325 14.0373 4.00833 12.55 3.925 10.8L3.875 10L4.65 10.05C5.35 10.0833 6.17933 10.254 7.138 10.562C8.096 10.8707 8.90833 11.2667 9.575 11.75C9.65833 10.5 9.96667 9.18333 10.5 7.8C11.0333 6.41667 11.7 5.24167 12.5 4.275C13.3 5.24167 13.9667 6.425 14.5 7.825C15.0333 9.225 15.3417 10.55 15.425 11.8C16.0583 11.35 16.8417 10.9543 17.775 10.613C18.7083 10.271 19.55 10.0833 20.3 10.05L21.125 10L21.075 10.85C21.025 12.2333 20.8127 13.4707 20.438 14.562C20.0627 15.654 19.529 16.6167 18.837 17.45C18.1457 18.2833 17.3 18.9873 16.3 19.562C15.3 20.1373 14.15 20.6 12.85 20.95ZM12.825 19.95C12.6417 17.1833 11.821 15.0917 10.363 13.675C8.90433 12.2583 7.09167 11.3833 4.925 11.05C5.10833 13.9 5.95433 16.025 7.463 17.425C8.971 18.825 10.7583 19.6667 12.825 19.95ZM12.5 14.9C12.7167 14.4833 13.0043 14.05 13.363 13.6C13.721 13.15 14.0833 12.7667 14.45 12.45C14.45 11.4167 14.2793 10.3417 13.938 9.225C13.596 8.10833 13.1167 7.04167 12.5 6.025C11.8833 7.04167 11.404 8.10833 11.062 9.225C10.7207 10.3417 10.55 11.4167 10.55 12.45C10.9167 12.7667 11.275 13.15 11.625 13.6C11.975 14.05 12.2667 14.4833 12.5 14.9ZM13.825 19.625C14.6083 19.3583 15.3627 19.0083 16.088 18.575C16.8127 18.1417 17.4583 17.5833 18.025 16.9C18.5917 16.2167 19.0543 15.396 19.413 14.438C19.771 13.4793 19.9917 12.35 20.075 11.05C18.4583 11.2833 17.0167 11.854 15.75 12.762C14.4833 13.6707 13.575 14.775 13.025 16.075C13.225 16.6083 13.3877 17.15 13.513 17.7C13.6377 18.25 13.7417 18.8917 13.825 19.625Z" fill="#3AA688"/>
<path d="M12.85 20.95C11.8 20.8333 10.7627 20.5667 9.738 20.15C8.71267 19.7333 7.78333 19.1207 6.95 18.312C6.11667 17.504 5.425 16.4873 4.875 15.262C4.325 14.0373 4.00833 12.55 3.925 10.8L3.875 10L4.65 10.05C5.35 10.0833 6.17933 10.254 7.138 10.562C8.096 10.8707 8.90833 11.2667 9.575 11.75C9.65833 10.5 9.96667 9.18333 10.5 7.8C11.0333 6.41667 11.7 5.24167 12.5 4.275C13.3 5.24167 13.9667 6.425 14.5 7.825C15.0333 9.225 15.3417 10.55 15.425 11.8C16.0583 11.35 16.8417 10.9543 17.775 10.613C18.7083 10.271 19.55 10.0833 20.3 10.05L21.125 10L21.075 10.85C21.025 12.2333 20.8127 13.4707 20.438 14.562C20.0627 15.654 19.529 16.6167 18.837 17.45C18.1457 18.2833 17.3 18.9873 16.3 19.562C15.3 20.1373 14.15 20.6 12.85 20.95ZM12.825 19.95C12.6417 17.1833 11.821 15.0917 10.363 13.675C8.90433 12.2583 7.09167 11.3833 4.925 11.05C5.10833 13.9 5.95433 16.025 7.463 17.425C8.971 18.825 10.7583 19.6667 12.825 19.95ZM12.5 14.9C12.7167 14.4833 13.0043 14.05 13.363 13.6C13.721 13.15 14.0833 12.7667 14.45 12.45C14.45 11.4167 14.2793 10.3417 13.938 9.225C13.596 8.10833 13.1167 7.04167 12.5 6.025C11.8833 7.04167 11.404 8.10833 11.062 9.225C10.7207 10.3417 10.55 11.4167 10.55 12.45C10.9167 12.7667 11.275 13.15 11.625 13.6C11.975 14.05 12.2667 14.4833 12.5 14.9ZM13.825 19.625C14.6083 19.3583 15.3627 19.0083 16.088 18.575C16.8127 18.1417 17.4583 17.5833 18.025 16.9C18.5917 16.2167 19.0543 15.396 19.413 14.438C19.771 13.4793 19.9917 12.35 20.075 11.05C18.4583 11.2833 17.0167 11.854 15.75 12.762C14.4833 13.6707 13.575 14.775 13.025 16.075C13.225 16.6083 13.3877 17.15 13.513 17.7C13.6377 18.25 13.7417 18.8917 13.825 19.625Z" fill="black" fill-opacity="0.2"/>
</g>
</svg>
