<svg width="25" height="25" viewBox="0 0 25 25" fill="none" xmlns="http://www.w3.org/2000/svg">
<path d="M12.5 2.08333C6.75937 2.08333 2.08333 6.75937 2.08333 12.5C2.08333 18.2406 6.75937 22.9167 12.5 22.9167C18.2406 22.9167 22.9167 18.2406 22.9167 12.5C22.9167 6.75937 18.2406 2.08333 12.5 2.08333ZM12.5 4.16666C17.1147 4.16666 20.8333 7.88528 20.8333 12.5C20.8333 17.1147 17.1147 20.8333 12.5 20.8333C7.88528 20.8333 4.16666 17.1147 4.16666 12.5C4.16666 7.88528 7.88528 4.16666 12.5 4.16666ZM11.4583 7.29166V11.4583H7.29166V13.5417H11.4583V17.7083H13.5417V13.5417H17.7083V11.4583H13.5417V7.29166H11.4583Z" fill="white"/>
</svg>
