<svg width="20" height="21" viewBox="0 0 20 21" fill="none" xmlns="http://www.w3.org/2000/svg">
<path d="M9.5 3.92505V0.550049H10.5V3.92505H9.5ZM15 6.20005L14.325 5.52505L16.675 3.07505L17.4 3.80005L15 6.20005ZM16.575 11V10H19.95V11H16.575ZM9.5 20.4501V17.1H10.5V20.4501H9.5ZM5.05 6.17505L2.575 3.82505L3.325 3.12505L5.725 5.50005L5.05 6.17505ZM16.675 17.925L14.325 15.475L15 14.825L17.375 17.15L16.675 17.925ZM0.0500031 11V10H3.425V11H0.0500031ZM3.3 17.925L2.625 17.175L4.975 14.825L5.35 15.15L5.725 15.525L3.3 17.925ZM10 15.5C8.61667 15.5 7.43767 15.0124 6.463 14.037C5.48767 13.0624 5 11.8834 5 10.5C5 9.11672 5.48767 7.93738 6.463 6.96205C7.43767 5.98738 8.61667 5.50005 10 5.50005C11.3833 5.50005 12.5627 5.98738 13.538 6.96205C14.5127 7.93738 15 9.11672 15 10.5C15 11.8834 14.5127 13.0624 13.538 14.037C12.5627 15.0124 11.3833 15.5 10 15.5ZM10 14.5C11.1 14.5 12.0417 14.1084 12.825 13.325C13.6083 12.5417 14 11.6 14 10.5C14 9.40005 13.6083 8.45838 12.825 7.67505C12.0417 6.89172 11.1 6.50005 10 6.50005C8.9 6.50005 7.95834 6.89172 7.175 7.67505C6.39167 8.45838 6 9.40005 6 10.5C6 11.6 6.39167 12.5417 7.175 13.325C7.95834 14.1084 8.9 14.5 10 14.5Z" fill="#3AA688"/>
<path d="M9.5 3.92505V0.550049H10.5V3.92505H9.5ZM15 6.20005L14.325 5.52505L16.675 3.07505L17.4 3.80005L15 6.20005ZM16.575 11V10H19.95V11H16.575ZM9.5 20.4501V17.1H10.5V20.4501H9.5ZM5.05 6.17505L2.575 3.82505L3.325 3.12505L5.725 5.50005L5.05 6.17505ZM16.675 17.925L14.325 15.475L15 14.825L17.375 17.15L16.675 17.925ZM0.0500031 11V10H3.425V11H0.0500031ZM3.3 17.925L2.625 17.175L4.975 14.825L5.35 15.15L5.725 15.525L3.3 17.925ZM10 15.5C8.61667 15.5 7.43767 15.0124 6.463 14.037C5.48767 13.0624 5 11.8834 5 10.5C5 9.11672 5.48767 7.93738 6.463 6.96205C7.43767 5.98738 8.61667 5.50005 10 5.50005C11.3833 5.50005 12.5627 5.98738 13.538 6.96205C14.5127 7.93738 15 9.11672 15 10.5C15 11.8834 14.5127 13.0624 13.538 14.037C12.5627 15.0124 11.3833 15.5 10 15.5ZM10 14.5C11.1 14.5 12.0417 14.1084 12.825 13.325C13.6083 12.5417 14 11.6 14 10.5C14 9.40005 13.6083 8.45838 12.825 7.67505C12.0417 6.89172 11.1 6.50005 10 6.50005C8.9 6.50005 7.95834 6.89172 7.175 7.67505C6.39167 8.45838 6 9.40005 6 10.5C6 11.6 6.39167 12.5417 7.175 13.325C7.95834 14.1084 8.9 14.5 10 14.5Z" fill="black" fill-opacity="0.2"/>
</svg>
