<svg width="28" height="28" viewBox="0 0 28 28" fill="none" xmlns="http://www.w3.org/2000/svg">
<path d="M5.3 22.2125C6.575 21.3125 7.925 20.594 9.35 20.057C10.775 19.519 12.325 19.25 14 19.25C15.675 19.25 17.225 19.519 18.65 20.057C20.075 20.594 21.425 21.3125 22.7 22.2125C23.7 21.1875 24.5 19.981 25.1 18.593C25.7 17.206 26 15.675 26 14C26 10.675 24.8315 7.8435 22.4945 5.5055C20.1565 3.1685 17.325 2 14 2C10.675 2 7.844 3.1685 5.507 5.5055C3.169 7.8435 2 10.675 2 14C2 15.675 2.3 17.206 2.9 18.593C3.5 19.981 4.3 21.1875 5.3 22.2125ZM14 14.75C12.725 14.75 11.6565 14.3185 10.7945 13.4555C9.9315 12.5935 9.5 11.525 9.5 10.25C9.5 8.975 9.9315 7.906 10.7945 7.043C11.6565 6.181 12.725 5.75 14 5.75C15.275 5.75 16.3435 6.181 17.2055 7.043C18.0685 7.906 18.5 8.975 18.5 10.25C18.5 11.525 18.0685 12.5935 17.2055 13.4555C16.3435 14.3185 15.275 14.75 14 14.75ZM14 27.5C12.125 27.5 10.3625 27.15 8.7125 26.45C7.0625 25.75 5.6315 24.794 4.4195 23.582C3.2065 22.369 2.25 20.9375 1.55 19.2875C0.85 17.6375 0.5 15.875 0.5 14C0.5 12.125 0.85 10.3625 1.55 8.7125C2.25 7.0625 3.2065 5.631 4.4195 4.418C5.6315 3.206 7.0625 2.25 8.7125 1.55C10.3625 0.85 12.125 0.5 14 0.5C15.875 0.5 17.6375 0.85 19.2875 1.55C20.9375 2.25 22.369 3.206 23.582 4.418C24.794 5.631 25.75 7.0625 26.45 8.7125C27.15 10.3625 27.5 12.125 27.5 14C27.5 15.875 27.15 17.6375 26.45 19.2875C25.75 20.9375 24.794 22.369 23.582 23.582C22.369 24.794 20.9375 25.75 19.2875 26.45C17.6375 27.15 15.875 27.5 14 27.5ZM14 26C15.375 26 16.7315 25.756 18.0695 25.268C19.4065 24.781 20.5625 24.125 21.5375 23.3C20.5625 22.5 19.4375 21.875 18.1625 21.425C16.8875 20.975 15.5 20.75 14 20.75C12.5 20.75 11.1065 20.975 9.8195 21.425C8.5315 21.875 7.4125 22.5 6.4625 23.3C7.4375 24.125 8.5935 24.781 9.9305 25.268C11.2685 25.756 12.625 26 14 26ZM14 13.25C14.85 13.25 15.5625 12.9625 16.1375 12.3875C16.7125 11.8125 17 11.1 17 10.25C17 9.4 16.7125 8.6875 16.1375 8.1125C15.5625 7.5375 14.85 7.25 14 7.25C13.15 7.25 12.4375 7.5375 11.8625 8.1125C11.2875 8.6875 11 9.4 11 10.25C11 11.1 11.2875 11.8125 11.8625 12.3875C12.4375 12.9625 13.15 13.25 14 13.25Z" fill="#1C1B1F"/>
</svg>
