<svg width="28" height="24" viewBox="0 0 28 24" fill="none" xmlns="http://www.w3.org/2000/svg">
<path d="M14 19.0874C15.575 19.0874 16.9 18.5499 17.975 17.4749C19.05 16.3999 19.5875 15.0749 19.5875 13.4999C19.5875 11.9249 19.05 10.5999 17.975 9.52488C16.9 8.44988 15.575 7.91238 14 7.91238C12.425 7.91238 11.1 8.44988 10.025 9.52488C8.95 10.5999 8.4125 11.9249 8.4125 13.4999C8.4125 15.0749 8.95 16.3999 10.025 17.4749C11.1 18.5499 12.425 19.0874 14 19.0874ZM14 17.5874C12.825 17.5874 11.85 17.1999 11.075 16.4249C10.3 15.6499 9.9125 14.6749 9.9125 13.4999C9.9125 12.3249 10.3 11.3499 11.075 10.5749C11.85 9.79988 12.825 9.41238 14 9.41238C15.175 9.41238 16.15 9.79988 16.925 10.5749C17.7 11.3499 18.0875 12.3249 18.0875 13.4999C18.0875 14.6749 17.7 15.6499 16.925 16.4249C16.15 17.1999 15.175 17.5874 14 17.5874ZM2.9375 23.9999C2.2375 23.9999 1.6565 23.7689 1.1945 23.3069C0.7315 22.8439 0.5 22.2624 0.5 21.5624V5.43738C0.5 4.73738 0.7315 4.15638 1.1945 3.69438C1.6565 3.23138 2.2375 2.99988 2.9375 2.99988H7.3625L10.1375 -0.00012207H17.8625L20.6375 2.99988H25.0625C25.7625 2.99988 26.344 3.23138 26.807 3.69438C27.269 4.15638 27.5 4.73738 27.5 5.43738V21.5624C27.5 22.2624 27.269 22.8439 26.807 23.3069C26.344 23.7689 25.7625 23.9999 25.0625 23.9999H2.9375ZM25.0625 22.4999C25.3375 22.4999 25.5625 22.4124 25.7375 22.2374C25.9125 22.0624 26 21.8374 26 21.5624V5.43738C26 5.16238 25.9125 4.93738 25.7375 4.76238C25.5625 4.58738 25.3375 4.49988 25.0625 4.49988H20L17.225 1.49988H10.775L8 4.49988H2.9375C2.6625 4.49988 2.4375 4.58738 2.2625 4.76238C2.0875 4.93738 2 5.16238 2 5.43738V21.5624C2 21.8374 2.0875 22.0624 2.2625 22.2374C2.4375 22.4124 2.6625 22.4999 2.9375 22.4999H25.0625Z" fill="#1C1B1F"/>
</svg>
