<svg width="24" height="27" viewBox="0 0 24 27" fill="none" xmlns="http://www.w3.org/2000/svg">
<path d="M7.6875 25H16.3125C16.5125 25 16.694 24.9375 16.857 24.8125C17.019 24.6875 17.1375 24.525 17.2125 24.325L18.8625 17.8H5.1375L6.7875 24.325C6.8625 24.525 6.981 24.6875 7.143 24.8125C7.306 24.9375 7.4875 25 7.6875 25ZM7.6875 26.5C7.1375 26.5 6.644 26.3315 6.207 25.9945C5.769 25.6565 5.4875 25.2125 5.3625 24.6625L3.6 17.8H20.4L18.6375 24.6625C18.5125 25.2125 18.2315 25.6565 17.7945 25.9945C17.3565 26.3315 16.8625 26.5 16.3125 26.5H7.6875ZM3 16.3H21.075C21.325 16.3 21.5375 16.2125 21.7125 16.0375C21.8875 15.8625 21.975 15.6375 21.975 15.3625V13H2.0625V15.3625C2.0625 15.6375 2.15 15.8625 2.325 16.0375C2.5 16.2125 2.725 16.3 3 16.3ZM12 8.01248C12.2 6.03748 12.9875 4.36248 14.3625 2.98748C15.7375 1.61248 17.4125 0.837476 19.3875 0.662476C19.2125 2.46248 18.506 4.03748 17.268 5.38748C16.031 6.73748 14.525 7.58748 12.75 7.93748V11.5H23.475V15.3625C23.475 16.0375 23.2375 16.6125 22.7625 17.0875C22.2875 17.5625 21.725 17.8 21.075 17.8H3C2.325 17.8 1.75 17.5625 1.275 17.0875C0.8 16.6125 0.5625 16.0375 0.5625 15.3625V11.5H11.25V7.93748C9.475 7.58748 7.975 6.74347 6.75 5.40548C5.525 4.06848 4.8125 2.48748 4.6125 0.662476C6.5875 0.837476 8.2625 1.61248 9.6375 2.98748C11.0125 4.36248 11.8 6.03748 12 8.01248Z" fill="#3AA688"/>
<path d="M7.6875 25H16.3125C16.5125 25 16.694 24.9375 16.857 24.8125C17.019 24.6875 17.1375 24.525 17.2125 24.325L18.8625 17.8H5.1375L6.7875 24.325C6.8625 24.525 6.981 24.6875 7.143 24.8125C7.306 24.9375 7.4875 25 7.6875 25ZM7.6875 26.5C7.1375 26.5 6.644 26.3315 6.207 25.9945C5.769 25.6565 5.4875 25.2125 5.3625 24.6625L3.6 17.8H20.4L18.6375 24.6625C18.5125 25.2125 18.2315 25.6565 17.7945 25.9945C17.3565 26.3315 16.8625 26.5 16.3125 26.5H7.6875ZM3 16.3H21.075C21.325 16.3 21.5375 16.2125 21.7125 16.0375C21.8875 15.8625 21.975 15.6375 21.975 15.3625V13H2.0625V15.3625C2.0625 15.6375 2.15 15.8625 2.325 16.0375C2.5 16.2125 2.725 16.3 3 16.3ZM12 8.01248C12.2 6.03748 12.9875 4.36248 14.3625 2.98748C15.7375 1.61248 17.4125 0.837476 19.3875 0.662476C19.2125 2.46248 18.506 4.03748 17.268 5.38748C16.031 6.73748 14.525 7.58748 12.75 7.93748V11.5H23.475V15.3625C23.475 16.0375 23.2375 16.6125 22.7625 17.0875C22.2875 17.5625 21.725 17.8 21.075 17.8H3C2.325 17.8 1.75 17.5625 1.275 17.0875C0.8 16.6125 0.5625 16.0375 0.5625 15.3625V11.5H11.25V7.93748C9.475 7.58748 7.975 6.74347 6.75 5.40548C5.525 4.06848 4.8125 2.48748 4.6125 0.662476C6.5875 0.837476 8.2625 1.61248 9.6375 2.98748C11.0125 4.36248 11.8 6.03748 12 8.01248Z" fill="black" fill-opacity="0.2"/>
</svg>
