<svg width="18" height="18" viewBox="0 0 18 18" fill="none" xmlns="http://www.w3.org/2000/svg">
<path d="M9 18C7.75 18 6.57933 17.7627 5.488 17.288C4.396 16.8127 3.446 16.1707 2.638 15.362C1.82933 14.554 1.18733 13.604 0.712 12.512C0.237333 11.4207 0 10.25 0 9C0 7.75 0.237333 6.579 0.712 5.487C1.18733 4.39567 1.82933 3.44567 2.638 2.637C3.446 1.829 4.396 1.18733 5.488 0.712C6.57933 0.237333 7.75 0 9 0C10.0167 0 10.9833 0.158333 11.9 0.475C12.8167 0.791667 13.65 1.23333 14.4 1.8L13.675 2.55C13.025 2.05 12.3043 1.66667 11.513 1.4C10.721 1.13333 9.88333 1 9 1C6.78333 1 4.896 1.779 3.338 3.337C1.77933 4.89567 1 6.78333 1 9C1 11.2167 1.77933 13.1043 3.338 14.663C4.896 16.221 6.78333 17 9 17C11.2167 17 13.1043 16.221 14.663 14.663C16.221 13.1043 17 11.2167 17 9C17 8.6 16.971 8.204 16.913 7.812C16.8543 7.42067 16.7667 7.04167 16.65 6.675L17.45 5.875C17.6333 6.35833 17.771 6.86233 17.863 7.387C17.9543 7.91233 18 8.45 18 9C18 10.25 17.7627 11.4207 17.288 12.512C16.8127 13.604 16.171 14.554 15.363 15.362C14.5543 16.1707 13.6043 16.8127 12.513 17.288C11.421 17.7627 10.25 18 9 18ZM7.55 12.9L4 9.35L4.7 8.65L7.55 11.5L17.3 1.75L18 2.475L7.55 12.9Z" fill="#3AA688"/>
<path d="M9 18C7.75 18 6.57933 17.7627 5.488 17.288C4.396 16.8127 3.446 16.1707 2.638 15.362C1.82933 14.554 1.18733 13.604 0.712 12.512C0.237333 11.4207 0 10.25 0 9C0 7.75 0.237333 6.579 0.712 5.487C1.18733 4.39567 1.82933 3.44567 2.638 2.637C3.446 1.829 4.396 1.18733 5.488 0.712C6.57933 0.237333 7.75 0 9 0C10.0167 0 10.9833 0.158333 11.9 0.475C12.8167 0.791667 13.65 1.23333 14.4 1.8L13.675 2.55C13.025 2.05 12.3043 1.66667 11.513 1.4C10.721 1.13333 9.88333 1 9 1C6.78333 1 4.896 1.779 3.338 3.337C1.77933 4.89567 1 6.78333 1 9C1 11.2167 1.77933 13.1043 3.338 14.663C4.896 16.221 6.78333 17 9 17C11.2167 17 13.1043 16.221 14.663 14.663C16.221 13.1043 17 11.2167 17 9C17 8.6 16.971 8.204 16.913 7.812C16.8543 7.42067 16.7667 7.04167 16.65 6.675L17.45 5.875C17.6333 6.35833 17.771 6.86233 17.863 7.387C17.9543 7.91233 18 8.45 18 9C18 10.25 17.7627 11.4207 17.288 12.512C16.8127 13.604 16.171 14.554 15.363 15.362C14.5543 16.1707 13.6043 16.8127 12.513 17.288C11.421 17.7627 10.25 18 9 18ZM7.55 12.9L4 9.35L4.7 8.65L7.55 11.5L17.3 1.75L18 2.475L7.55 12.9Z" fill="black" fill-opacity="0.2"/>
</svg>
