<svg width="11" height="15" viewBox="0 0 11 15" fill="none" xmlns="http://www.w3.org/2000/svg">
<path d="M9.9356 6.38736L5.93114 0.232149C5.88483 0.16097 5.82107 0.1024 5.74573 0.0618318C5.67039 0.0212632 5.58588 0 5.5 0C5.41412 0 5.32961 0.0212632 5.25427 0.0618318C5.17893 0.1024 5.11517 0.16097 5.06886 0.232149L1.06431 6.38742C0.370059 7.31423 -0.00305675 8.43611 1.88626e-05 9.58752C1.88626e-05 12.5719 2.46727 15 5.5 15C8.53273 15 11 12.572 11 9.58752C11.0031 8.43608 10.6299 7.31416 9.9356 6.38736ZM5.5 13.9924C3.03189 13.9924 1.02387 12.0164 1.02387 9.58752C1.02125 8.64587 1.32786 7.72858 1.89801 6.97234C1.90481 6.96327 1.9113 6.95399 1.91746 6.94451L5.5 1.4381L9.08241 6.94454C9.08855 6.95405 9.09504 6.96332 9.10186 6.97237C9.67206 7.72859 9.97872 8.64586 9.97613 9.58752C9.97613 12.0164 7.96811 13.9924 5.5 13.9924Z" fill="#3AA688"/>
<path d="M9.9356 6.38736L5.93114 0.232149C5.88483 0.16097 5.82107 0.1024 5.74573 0.0618318C5.67039 0.0212632 5.58588 0 5.5 0C5.41412 0 5.32961 0.0212632 5.25427 0.0618318C5.17893 0.1024 5.11517 0.16097 5.06886 0.232149L1.06431 6.38742C0.370059 7.31423 -0.00305675 8.43611 1.88626e-05 9.58752C1.88626e-05 12.5719 2.46727 15 5.5 15C8.53273 15 11 12.572 11 9.58752C11.0031 8.43608 10.6299 7.31416 9.9356 6.38736ZM5.5 13.9924C3.03189 13.9924 1.02387 12.0164 1.02387 9.58752C1.02125 8.64587 1.32786 7.72858 1.89801 6.97234C1.90481 6.96327 1.9113 6.95399 1.91746 6.94451L5.5 1.4381L9.08241 6.94454C9.08855 6.95405 9.09504 6.96332 9.10186 6.97237C9.67206 7.72859 9.97872 8.64586 9.97613 9.58752C9.97613 12.0164 7.96811 13.9924 5.5 13.9924Z" fill="black" fill-opacity="0.2"/>
</svg>
