<svg width="16" height="18" viewBox="0 0 16 18" fill="none" xmlns="http://www.w3.org/2000/svg">
<path d="M3.625 18C3.19167 18 2.81267 17.8583 2.488 17.575C2.16267 17.2917 1.975 16.9417 1.925 16.525L0.125 0H15.875L14.075 16.525C14.025 16.9417 13.85 17.2917 13.55 17.575C13.25 17.8583 12.8833 18 12.45 18H3.625ZM1.825 6.375L2.925 16.375C2.94167 16.5583 3.01667 16.7083 3.15 16.825C3.28333 16.9417 3.44167 17 3.625 17H12.45C12.6167 17 12.7583 16.9373 12.875 16.812C12.9917 16.6873 13.0583 16.5417 13.075 16.375L14.175 6.375H1.825ZM1.7 5.375H14.3L14.75 1H1.25L1.7 5.375ZM8 15.125C8.66667 15.125 9.22933 14.896 9.688 14.438C10.146 13.9793 10.375 13.425 10.375 12.775C10.375 12.2417 10.2123 11.675 9.887 11.075C9.56233 10.475 8.93333 9.575 8 8.375C7.06667 9.575 6.43767 10.475 6.113 11.075C5.78767 11.675 5.625 12.2417 5.625 12.775C5.625 13.425 5.854 13.9793 6.312 14.438C6.77067 14.896 7.33333 15.125 8 15.125ZM8 14.125C7.61667 14.125 7.29167 13.9917 7.025 13.725C6.75833 13.4583 6.625 13.1333 6.625 12.75C6.625 12.3667 6.75 11.9457 7 11.487C7.25 11.029 7.58333 10.5167 8 9.95C8.41667 10.55 8.75 11.0707 9 11.512C9.25 11.954 9.375 12.3667 9.375 12.75C9.375 13.1333 9.24167 13.4583 8.975 13.725C8.70833 13.9917 8.38333 14.125 8 14.125Z" fill="#3AA688"/>
<path d="M3.625 18C3.19167 18 2.81267 17.8583 2.488 17.575C2.16267 17.2917 1.975 16.9417 1.925 16.525L0.125 0H15.875L14.075 16.525C14.025 16.9417 13.85 17.2917 13.55 17.575C13.25 17.8583 12.8833 18 12.45 18H3.625ZM1.825 6.375L2.925 16.375C2.94167 16.5583 3.01667 16.7083 3.15 16.825C3.28333 16.9417 3.44167 17 3.625 17H12.45C12.6167 17 12.7583 16.9373 12.875 16.812C12.9917 16.6873 13.0583 16.5417 13.075 16.375L14.175 6.375H1.825ZM1.7 5.375H14.3L14.75 1H1.25L1.7 5.375ZM8 15.125C8.66667 15.125 9.22933 14.896 9.688 14.438C10.146 13.9793 10.375 13.425 10.375 12.775C10.375 12.2417 10.2123 11.675 9.887 11.075C9.56233 10.475 8.93333 9.575 8 8.375C7.06667 9.575 6.43767 10.475 6.113 11.075C5.78767 11.675 5.625 12.2417 5.625 12.775C5.625 13.425 5.854 13.9793 6.312 14.438C6.77067 14.896 7.33333 15.125 8 15.125ZM8 14.125C7.61667 14.125 7.29167 13.9917 7.025 13.725C6.75833 13.4583 6.625 13.1333 6.625 12.75C6.625 12.3667 6.75 11.9457 7 11.487C7.25 11.029 7.58333 10.5167 8 9.95C8.41667 10.55 8.75 11.0707 9 11.512C9.25 11.954 9.375 12.3667 9.375 12.75C9.375 13.1333 9.24167 13.4583 8.975 13.725C8.70833 13.9917 8.38333 14.125 8 14.125Z" fill="black" fill-opacity="0.2"/>
</svg>
