<svg width="20" height="19" viewBox="0 0 20 19" fill="none" xmlns="http://www.w3.org/2000/svg">
<path d="M2.5 8.125C1.93333 8.125 1.45833 7.93333 1.075 7.55C0.691667 7.16667 0.5 6.69167 0.5 6.125C0.5 5.55833 0.691667 5.08333 1.075 4.7C1.45833 4.31667 1.93333 4.125 2.5 4.125C3.06667 4.125 3.54167 4.31667 3.925 4.7C4.30833 5.08333 4.5 5.55833 4.5 6.125C4.5 6.69167 4.30833 7.16667 3.925 7.55C3.54167 7.93333 3.06667 8.125 2.5 8.125ZM7 4.125C6.43333 4.125 5.95833 3.93333 5.575 3.55C5.19167 3.16667 5 2.69167 5 2.125C5 1.55833 5.19167 1.08333 5.575 0.7C5.95833 0.316666 6.43333 0.125 7 0.125C7.56667 0.125 8.04167 0.316666 8.425 0.7C8.80833 1.08333 9 1.55833 9 2.125C9 2.69167 8.80833 3.16667 8.425 3.55C8.04167 3.93333 7.56667 4.125 7 4.125ZM13 4.125C12.4333 4.125 11.9583 3.93333 11.575 3.55C11.1917 3.16667 11 2.69167 11 2.125C11 1.55833 11.1917 1.08333 11.575 0.7C11.9583 0.316666 12.4333 0.125 13 0.125C13.5667 0.125 14.0417 0.316666 14.425 0.7C14.8083 1.08333 15 1.55833 15 2.125C15 2.69167 14.8083 3.16667 14.425 3.55C14.0417 3.93333 13.5667 4.125 13 4.125ZM17.5 8.125C16.9333 8.125 16.4583 7.93333 16.075 7.55C15.6917 7.16667 15.5 6.69167 15.5 6.125C15.5 5.55833 15.6917 5.08333 16.075 4.7C16.4583 4.31667 16.9333 4.125 17.5 4.125C18.0667 4.125 18.5417 4.31667 18.925 4.7C19.3083 5.08333 19.5 5.55833 19.5 6.125C19.5 6.69167 19.3083 7.16667 18.925 7.55C18.5417 7.93333 18.0667 8.125 17.5 8.125ZM4.65 18.125C4.03333 18.125 3.521 17.8877 3.113 17.413C2.70433 16.9377 2.5 16.375 2.5 15.725C2.5 14.9083 2.78767 14.2123 3.363 13.637C3.93767 13.0623 4.49167 12.475 5.025 11.875C5.50833 11.3417 5.92933 10.775 6.288 10.175C6.646 9.575 7.05833 9.00833 7.525 8.475C7.85833 8.10833 8.23333 7.79167 8.65 7.525C9.06667 7.25833 9.51667 7.125 10 7.125C10.5 7.125 10.9623 7.25 11.387 7.5C11.8123 7.75 12.1833 8.06667 12.5 8.45C12.9667 8.98333 13.375 9.554 13.725 10.162C14.075 10.7707 14.4917 11.3417 14.975 11.875C15.5083 12.475 16.0627 13.0623 16.638 13.637C17.2127 14.2123 17.5 14.9083 17.5 15.725C17.5 16.375 17.296 16.9377 16.888 17.413C16.4793 17.8877 15.9667 18.125 15.35 18.125C14.45 18.125 13.5583 18.05 12.675 17.9C11.7917 17.75 10.9 17.675 10 17.675C9.1 17.675 8.20833 17.75 7.325 17.9C6.44167 18.05 5.55 18.125 4.65 18.125Z" fill="#3AA688"/>
<path d="M2.5 8.125C1.93333 8.125 1.45833 7.93333 1.075 7.55C0.691667 7.16667 0.5 6.69167 0.5 6.125C0.5 5.55833 0.691667 5.08333 1.075 4.7C1.45833 4.31667 1.93333 4.125 2.5 4.125C3.06667 4.125 3.54167 4.31667 3.925 4.7C4.30833 5.08333 4.5 5.55833 4.5 6.125C4.5 6.69167 4.30833 7.16667 3.925 7.55C3.54167 7.93333 3.06667 8.125 2.5 8.125ZM7 4.125C6.43333 4.125 5.95833 3.93333 5.575 3.55C5.19167 3.16667 5 2.69167 5 2.125C5 1.55833 5.19167 1.08333 5.575 0.7C5.95833 0.316666 6.43333 0.125 7 0.125C7.56667 0.125 8.04167 0.316666 8.425 0.7C8.80833 1.08333 9 1.55833 9 2.125C9 2.69167 8.80833 3.16667 8.425 3.55C8.04167 3.93333 7.56667 4.125 7 4.125ZM13 4.125C12.4333 4.125 11.9583 3.93333 11.575 3.55C11.1917 3.16667 11 2.69167 11 2.125C11 1.55833 11.1917 1.08333 11.575 0.7C11.9583 0.316666 12.4333 0.125 13 0.125C13.5667 0.125 14.0417 0.316666 14.425 0.7C14.8083 1.08333 15 1.55833 15 2.125C15 2.69167 14.8083 3.16667 14.425 3.55C14.0417 3.93333 13.5667 4.125 13 4.125ZM17.5 8.125C16.9333 8.125 16.4583 7.93333 16.075 7.55C15.6917 7.16667 15.5 6.69167 15.5 6.125C15.5 5.55833 15.6917 5.08333 16.075 4.7C16.4583 4.31667 16.9333 4.125 17.5 4.125C18.0667 4.125 18.5417 4.31667 18.925 4.7C19.3083 5.08333 19.5 5.55833 19.5 6.125C19.5 6.69167 19.3083 7.16667 18.925 7.55C18.5417 7.93333 18.0667 8.125 17.5 8.125ZM4.65 18.125C4.03333 18.125 3.521 17.8877 3.113 17.413C2.70433 16.9377 2.5 16.375 2.5 15.725C2.5 14.9083 2.78767 14.2123 3.363 13.637C3.93767 13.0623 4.49167 12.475 5.025 11.875C5.50833 11.3417 5.92933 10.775 6.288 10.175C6.646 9.575 7.05833 9.00833 7.525 8.475C7.85833 8.10833 8.23333 7.79167 8.65 7.525C9.06667 7.25833 9.51667 7.125 10 7.125C10.5 7.125 10.9623 7.25 11.387 7.5C11.8123 7.75 12.1833 8.06667 12.5 8.45C12.9667 8.98333 13.375 9.554 13.725 10.162C14.075 10.7707 14.4917 11.3417 14.975 11.875C15.5083 12.475 16.0627 13.0623 16.638 13.637C17.2127 14.2123 17.5 14.9083 17.5 15.725C17.5 16.375 17.296 16.9377 16.888 17.413C16.4793 17.8877 15.9667 18.125 15.35 18.125C14.45 18.125 13.5583 18.05 12.675 17.9C11.7917 17.75 10.9 17.675 10 17.675C9.1 17.675 8.20833 17.75 7.325 17.9C6.44167 18.05 5.55 18.125 4.65 18.125Z" fill="black" fill-opacity="0.2"/>
</svg>
