<svg width="13" height="15" viewBox="0 0 13 15" fill="none" xmlns="http://www.w3.org/2000/svg">
<path d="M7 6.29002C7 7.54002 6.25 9.29002 6.25 9.29002L7 6.29002ZM6.5 6.79002C6.5 6.79002 7.25 4.79002 5.5 3.29002C3.75 1.79002 1 2.29002 1 2.29002C1 2.29002 1 4.29002 2.5 5.79002C4 7.29002 6.5 6.79002 6.5 6.79002ZM7 5.79002C7 5.79002 6.25 3.79002 8 2.29002C9.75 0.790022 12.5 1.29002 12.5 1.29002C12.5 1.29002 12.5 3.29002 11 4.79002C9.5 6.29002 7 5.79002 7 5.79002ZM3 9.29002H9.5C9.5 9.29002 10 13.79 6.25 13.79C2.5 13.79 3 9.29002 3 9.29002Z" stroke="#3AA688" stroke-width="0.8" stroke-linecap="round" stroke-linejoin="round"/>
<path d="M7 6.29002C7 7.54002 6.25 9.29002 6.25 9.29002L7 6.29002ZM6.5 6.79002C6.5 6.79002 7.25 4.79002 5.5 3.29002C3.75 1.79002 1 2.29002 1 2.29002C1 2.29002 1 4.29002 2.5 5.79002C4 7.29002 6.5 6.79002 6.5 6.79002ZM7 5.79002C7 5.79002 6.25 3.79002 8 2.29002C9.75 0.790022 12.5 1.29002 12.5 1.29002C12.5 1.29002 12.5 3.29002 11 4.79002C9.5 6.29002 7 5.79002 7 5.79002ZM3 9.29002H9.5C9.5 9.29002 10 13.79 6.25 13.79C2.5 13.79 3 9.29002 3 9.29002Z" stroke="black" stroke-opacity="0.2" stroke-width="0.8" stroke-linecap="round" stroke-linejoin="round"/>
</svg>
